<svg width="180" height="181" viewBox="0 0 180 181" fill="none" xmlns="http://www.w3.org/2000/svg">
<g opacity="0.5">
<g opacity="0.5">
<path opacity="0.5" d="M37.8916 170.957L37.5825 116.959L37.2733 62.9608L80.6761 38.6385L124.231 14.1638" stroke="#2F94D1" stroke-width="1.7967" stroke-miterlimit="10"/>
<path opacity="0.5" d="M120.391 22.4321L82.3053 43.687L43.6228 65.251L43.8804 113.674L44.1379 162.098L53.2478 156.994L68.3078 148.639L92.4863 135.226L112.485 124.104" stroke="#3281B5" stroke-width="1.7967" stroke-miterlimit="10"/>
<path opacity="0.5" d="M126.655 35.5388L116.703 30.5503L83.9367 48.7378L49.9744 67.5414L50.1804 110.39L50.3865 153.239L58.2449 148.83L71.2357 141.607L92.0914 130.012L111.116 119.384L126.874 104.092L126.764 69.8167L126.655 35.5388Z" stroke="#3271A0" stroke-width="1.7967" stroke-miterlimit="10"/>
<path opacity="0.5" d="M121.376 41.9464L113.016 38.6665L85.568 53.7866L56.3259 69.8319L56.4805 107.106L56.635 144.381L63.242 140.667L74.1614 134.575L91.6964 124.798L109.747 114.664L121.552 98.2777L121.464 70.1131L121.376 41.9464Z" stroke="#2F628D" stroke-width="1.7967" stroke-miterlimit="10"/>
<path opacity="0.5" d="M116.1 48.3535L109.328 46.7844L87.1994 58.8372L62.6753 72.122L62.7784 103.822L62.8814 135.524L68.2391 132.502L77.0893 127.543L91.3014 119.584L108.379 109.944L116.233 92.4646L116.167 70.4091L116.1 48.3535Z" stroke="#2C557C" stroke-width="1.7967" stroke-miterlimit="10"/>
<path opacity="0.5" d="M69.0269 74.4124L88.8286 63.8859L105.64 54.9005L110.822 54.761L110.867 70.7054L110.912 86.6498L107.01 105.224L79.7572 120.074" stroke="#28476D" stroke-width="1.7967" stroke-miterlimit="10"/>
</g>
</g>
<g opacity="0.8">
<path opacity="0.8" d="M32.4865 56.3402V102.788L73.302 79.4512L73.1706 33.0032L32.4865 56.3402Z" fill="url(#paint0_linear)" stroke="#35AFE4" stroke-miterlimit="10" stroke-linejoin="round"/>
</g>
<g opacity="0.8">
<path opacity="0.8" d="M38.0559 59.5126V105.961L78.8741 82.6236L78.7427 36.1755L38.0559 59.5126Z" fill="url(#paint1_linear)" stroke="#35AFE4" stroke-miterlimit="10" stroke-linejoin="round"/>
</g>
<g opacity="0.8">
<path opacity="0.8" d="M47.8465 63.3157V97.0426L77.4863 80.0977L77.3891 46.3682L47.8465 63.3157Z" stroke="url(#paint2_linear)" stroke-miterlimit="10"/>
</g>
<path d="M45.8805 63.5289L42.1377 61.3027L42.2691 107.859L45.8805 110.085V63.5289Z" fill="#D23E27"/>
<path d="M86.349 40.1366L83.1871 38.3704L42.1377 61.3026L45.8804 63.5289L86.349 40.1366Z" fill="#F26844"/>
<path d="M45.8804 63.5287V110.085L86.4804 86.6923L86.349 40.1365L45.8804 63.5287Z" fill="#F05423"/>
<path opacity="0.5" d="M62.7281 76.2944C62.7781 76.2707 62.8306 76.2576 62.8779 76.2576C62.9147 76.2576 62.9489 76.2655 62.9752 76.2812C63.0356 76.318 63.0488 76.3942 63.0488 76.4494C63.0488 76.6834 62.8806 76.9698 62.6572 77.1197C62.5678 77.1643 62.4706 77.1696 62.4075 77.1328C62.347 77.096 62.3339 77.0198 62.3339 76.9646V76.9514C62.305 76.7254 62.51 76.4389 62.7281 76.2944Z" fill="white"/>
<path opacity="0.5" d="M62.7176 78.1212C62.7728 78.0922 62.8306 78.0791 62.8806 78.0791C62.9173 78.0791 62.9515 78.087 62.9778 78.1028C63.0383 78.1396 63.0514 78.2158 63.0514 78.271C63.0514 78.5049 62.8832 78.7914 62.6598 78.9412C62.5704 78.9859 62.4732 78.9911 62.4101 78.9543C62.3496 78.9175 62.3365 78.8413 62.3365 78.7861C62.3365 78.5364 62.5178 78.221 62.7176 78.1212Z" fill="white"/>
<path opacity="0.5" d="M62.6572 73.6736C62.5678 73.7183 62.4706 73.7236 62.4075 73.6868C62.347 73.65 62.3339 73.5737 62.3339 73.5185V73.5054C62.2997 73.2662 62.4785 72.9561 62.7097 72.8562C62.7702 72.8273 62.828 72.8115 62.878 72.8115C62.9148 72.8115 62.9463 72.8194 62.9726 72.8352C63.033 72.872 63.0462 72.9482 63.0462 73.0034C63.0488 73.2347 62.8806 73.5238 62.6572 73.6736Z" fill="white"/>
<path opacity="0.5" d="M62.6572 75.4559C62.5678 75.5006 62.4706 75.5058 62.4075 75.469C62.347 75.4323 62.3339 75.356 62.3339 75.3008V75.2877C62.3023 75.059 62.4679 74.7804 62.7203 74.6359C62.7728 74.6096 62.828 74.5964 62.8779 74.5964C62.9147 74.5964 62.9489 74.6043 62.9752 74.6201C63.0356 74.6569 63.0488 74.7331 63.0488 74.7883C63.0488 75.0196 62.8806 75.3061 62.6572 75.4559Z" fill="white"/>
<path opacity="0.5" d="M62.7281 79.6191C62.7781 79.5954 62.8306 79.5823 62.8779 79.5823C62.9147 79.5823 62.9489 79.5902 62.9752 79.6059C63.0356 79.6427 63.0488 79.719 63.0488 79.7741C63.0488 80.0081 62.8806 80.2946 62.6572 80.4444C62.5678 80.4891 62.4706 80.4943 62.4075 80.4575C62.347 80.4207 62.3339 80.3445 62.3339 80.2893C62.3365 80.058 62.5047 79.7689 62.7281 79.6191Z" fill="white"/>
<path opacity="0.5" d="M62.7176 81.4488C62.7754 81.4199 62.8306 81.4067 62.8806 81.4067C62.9174 81.4067 62.9515 81.4146 62.9752 81.4304C63.0356 81.4672 63.0488 81.5434 63.0488 81.5986C63.0488 81.8325 62.8806 82.119 62.6572 82.2688C62.5678 82.3135 62.4706 82.3188 62.4075 82.282C62.347 82.2452 62.3339 82.169 62.3339 82.1138C62.3365 81.8641 62.5179 81.5487 62.7176 81.4488Z" fill="white"/>
<path opacity="0.5" d="M64.2316 75.4614C64.2815 75.4377 64.3341 75.4246 64.3814 75.4246C64.4182 75.4246 64.4523 75.4325 64.4786 75.4482C64.5391 75.485 64.5522 75.5612 64.5522 75.6164C64.5522 75.8609 64.3735 76.1421 64.1264 76.284C64.0318 76.3313 63.9346 76.3392 63.8715 76.2998C63.8137 76.263 63.8005 76.1947 63.7979 76.1395C63.8399 75.8871 64.0187 75.6033 64.2316 75.4614Z" fill="white"/>
<path opacity="0.5" d="M64.2316 77.2433C64.2815 77.2197 64.3341 77.2065 64.3814 77.2065C64.4182 77.2065 64.4523 77.2144 64.4786 77.2302C64.5391 77.267 64.5522 77.3432 64.5522 77.3984C64.5522 77.6429 64.3735 77.9241 64.1264 78.066C64.0318 78.1107 63.9346 78.1186 63.8715 78.0818C63.8137 78.045 63.8005 77.9766 63.7979 77.9215C63.8399 77.6691 64.0187 77.3853 64.2316 77.2433Z" fill="white"/>
<path opacity="0.5" d="M64.221 72.0232C64.2789 71.9943 64.3341 71.9812 64.384 71.9812C64.4208 71.9812 64.455 71.9891 64.4786 72.0049C64.5391 72.0417 64.5522 72.1179 64.5522 72.1731C64.5522 72.4149 64.3682 72.7014 64.1264 72.8407C64.0318 72.888 63.9346 72.8932 63.8715 72.8564C63.811 72.8196 63.7979 72.7434 63.7979 72.6882C63.8005 72.4569 64.0082 72.1284 64.221 72.0232Z" fill="white"/>
<path opacity="0.5" d="M64.2316 73.7973C64.2815 73.7736 64.3341 73.7605 64.3814 73.7605C64.4182 73.7605 64.4523 73.7684 64.4786 73.7842C64.5391 73.8209 64.5522 73.8972 64.5522 73.9524C64.5522 74.1968 64.3735 74.478 64.1264 74.62C64.0318 74.6673 63.9346 74.6725 63.8715 74.6357C63.8137 74.5989 63.8005 74.5306 63.7979 74.4754C63.8399 74.2231 64.0187 73.9392 64.2316 73.7973Z" fill="white"/>
<path opacity="0.5" d="M64.2316 78.7888C64.2815 78.7651 64.3341 78.752 64.3814 78.752C64.4182 78.752 64.4523 78.7598 64.4786 78.7756C64.5391 78.8124 64.5522 78.8886 64.5522 78.9438C64.5522 79.1856 64.3682 79.4721 64.1264 79.6114C64.0318 79.6587 63.9346 79.664 63.8715 79.6272C63.8137 79.5904 63.8005 79.5221 63.7979 79.4669C63.8399 79.2172 64.0239 78.9281 64.2316 78.7888Z" fill="white"/>
<path opacity="0.5" d="M64.2316 80.5707C64.2815 80.5471 64.3341 80.5339 64.3814 80.5339C64.4182 80.5339 64.4523 80.5418 64.4786 80.5576C64.5391 80.5944 64.5522 80.6706 64.5522 80.7258C64.5522 80.9702 64.3735 81.2515 64.1264 81.3934C64.0318 81.4407 63.9346 81.446 63.8715 81.4092C63.8137 81.3724 63.8005 81.304 63.7979 81.2488C63.8399 80.9965 64.0187 80.7127 64.2316 80.5707Z" fill="white"/>
<path opacity="0.5" d="M65.7349 74.6305C65.7849 74.6069 65.8375 74.5938 65.8848 74.5938C65.9216 74.5938 65.9557 74.6016 65.982 74.6174C66.0425 74.6542 66.0556 74.7304 66.0556 74.7856C66.0556 75.0195 65.8874 75.306 65.664 75.4558C65.5746 75.5005 65.4774 75.5058 65.4143 75.469C65.3538 75.4322 65.3407 75.356 65.3407 75.3008C65.3433 75.0668 65.5115 74.7777 65.7349 74.6305Z" fill="white"/>
<path opacity="0.5" d="M65.7691 76.4152C65.8217 76.3889 65.8769 76.3757 65.9268 76.3757C65.9636 76.3757 65.9978 76.3836 66.0241 76.3994C66.0845 76.4362 66.0977 76.5124 66.0977 76.5676C66.0977 76.8015 65.9295 77.088 65.7061 77.2378C65.6167 77.2799 65.5195 77.2878 65.459 77.251C65.3985 77.2142 65.3854 77.1379 65.3854 77.0827V77.0696C65.3486 76.8409 65.5142 76.5597 65.7691 76.4152Z" fill="white"/>
<path opacity="0.5" d="M65.7244 71.19C65.7823 71.1611 65.8375 71.1479 65.8874 71.1479C65.9242 71.1479 65.9584 71.1558 65.982 71.1716C66.0425 71.2084 66.0556 71.2846 66.0556 71.3398C66.0556 71.5737 65.8874 71.8602 65.664 72.01C65.5746 72.0547 65.4774 72.06 65.4143 72.0232C65.3538 71.9864 65.3407 71.9102 65.3407 71.855C65.3433 71.6079 65.5247 71.2899 65.7244 71.19Z" fill="white"/>
<path opacity="0.5" d="M65.7349 72.9667C65.7849 72.9431 65.8375 72.9299 65.8848 72.9299C65.9216 72.9299 65.9557 72.9378 65.982 72.9536C66.0425 72.9904 66.0556 73.0666 66.0556 73.1218C66.0556 73.3557 65.8874 73.6422 65.664 73.792C65.5746 73.8367 65.4774 73.842 65.4143 73.8052C65.3538 73.7684 65.3407 73.6922 65.3407 73.637C65.3433 73.403 65.5115 73.1165 65.7349 72.9667Z" fill="white"/>
<path opacity="0.5" d="M65.7691 77.9608C65.8217 77.9345 65.8769 77.9214 65.9268 77.9214C65.9636 77.9214 65.9978 77.9293 66.0241 77.945C66.0845 77.9818 66.0977 78.0581 66.0977 78.1133C66.0977 78.3472 65.9295 78.6337 65.7061 78.7835C65.6167 78.8282 65.5195 78.8334 65.459 78.7966C65.3985 78.7598 65.3854 78.6836 65.3854 78.6284V78.6153C65.3486 78.3866 65.5142 78.1054 65.7691 77.9608Z" fill="white"/>
<path opacity="0.5" d="M65.7744 79.7402C65.8243 79.7165 65.8769 79.7034 65.9242 79.7034C65.961 79.7034 65.9952 79.7113 66.0214 79.727C66.0819 79.7638 66.095 79.84 66.095 79.8952C66.095 80.1292 65.9268 80.4156 65.7034 80.5655C65.614 80.6101 65.5168 80.6154 65.4563 80.5786C65.3959 80.5418 65.3827 80.4656 65.3827 80.4104V80.3973C65.3486 80.1686 65.5562 79.8847 65.7744 79.7402Z" fill="white"/>
<path opacity="0.5" d="M67.2621 73.8079C67.3225 73.7789 67.3803 73.7632 67.4303 73.7632C67.4671 73.7632 67.4986 73.7711 67.5249 73.7868C67.5853 73.8236 67.5985 73.8999 67.5985 73.955C67.5985 74.189 67.4303 74.4755 67.2069 74.6253C67.1175 74.67 67.0202 74.6752 66.9598 74.6384C66.8993 74.6016 66.8862 74.5254 66.8862 74.4702V74.4571C66.8494 74.2153 67.0308 73.9051 67.2621 73.8079Z" fill="white"/>
<path opacity="0.5" d="M67.2778 75.5795C67.3278 75.5559 67.3803 75.5427 67.4276 75.5427C67.4644 75.5427 67.4986 75.5506 67.5249 75.5664C67.5853 75.6032 67.5985 75.6794 67.5985 75.7346C67.5985 75.9685 67.4303 76.255 67.2069 76.4048C67.1175 76.4495 67.0202 76.4548 66.9598 76.418C66.8993 76.3812 66.8862 76.3049 66.8862 76.2497V76.2366C66.852 76.0106 67.0597 75.7267 67.2778 75.5795Z" fill="white"/>
<path opacity="0.5" d="M67.2069 71.1798C67.1175 71.2245 67.0202 71.2297 66.9598 71.1929C66.8993 71.1561 66.8862 71.0799 66.8862 71.0247V71.0116C66.852 70.7724 67.0308 70.4622 67.2621 70.365C67.3225 70.3361 67.3803 70.3203 67.4303 70.3203C67.4671 70.3203 67.4986 70.3282 67.5249 70.344C67.5853 70.3808 67.5985 70.457 67.5985 70.5122C67.5985 70.7408 67.4303 71.03 67.2069 71.1798Z" fill="white"/>
<path opacity="0.5" d="M67.2621 72.1443C67.3225 72.1154 67.3803 72.0996 67.4303 72.0996C67.4671 72.0996 67.4986 72.1075 67.5249 72.1233C67.5853 72.1601 67.5985 72.2363 67.5985 72.2915C67.5985 72.5254 67.4303 72.8119 67.2069 72.9617C67.0965 73.0064 66.9808 73.0143 66.9151 72.9696C66.8704 72.9407 66.8468 72.8855 66.8468 72.8066C66.8468 72.578 67.0176 72.2494 67.2621 72.1443Z" fill="white"/>
<path opacity="0.5" d="M67.2673 77.1302C67.3251 77.1013 67.3803 77.0881 67.4303 77.0881C67.4671 77.0881 67.4986 77.096 67.5249 77.1118C67.5853 77.1486 67.5985 77.2248 67.5985 77.28C67.5985 77.5139 67.4303 77.8004 67.2069 77.9502C67.1175 77.9949 67.0202 78.0002 66.9598 77.9634C66.8993 77.9266 66.8862 77.8504 66.8862 77.7952C66.8862 77.5481 67.0676 77.2301 67.2673 77.1302Z" fill="white"/>
<path opacity="0.5" d="M67.2778 78.9072C67.3278 78.8835 67.3803 78.8704 67.4276 78.8704C67.4644 78.8704 67.4986 78.8782 67.5249 78.894C67.5853 78.9308 67.5985 79.007 67.5985 79.0622C67.5985 79.2962 67.4303 79.5826 67.2069 79.7325C67.1175 79.7771 67.0202 79.7824 66.9598 79.7456C66.8993 79.7088 66.8862 79.6326 66.8862 79.5774C66.8862 79.3435 67.0544 79.057 67.2778 78.9072Z" fill="white"/>
<path opacity="0.5" d="M68.7707 72.972C68.8259 72.9431 68.8837 72.9299 68.9336 72.9299C68.9704 72.9299 69.0046 72.9378 69.0283 72.9536C69.0887 72.9904 69.1019 73.0666 69.1019 73.1218C69.1019 73.3636 68.9205 73.6501 68.6761 73.7894C68.5814 73.8367 68.4816 73.842 68.4211 73.8052C68.3633 73.7684 68.3502 73.7 68.3475 73.6448C68.387 73.4004 68.5631 73.0771 68.7707 72.972Z" fill="white"/>
<path opacity="0.5" d="M68.7786 74.749C68.8285 74.7253 68.8811 74.7122 68.9284 74.7122C68.9652 74.7122 68.9994 74.72 69.0256 74.7358C69.0861 74.7726 69.0992 74.8488 69.0992 74.904C69.0992 75.1458 68.9179 75.4323 68.6735 75.5716C68.5788 75.6189 68.479 75.6268 68.4185 75.5874C68.3607 75.5506 68.3475 75.4823 68.3449 75.4271C68.387 75.1747 68.5683 74.8909 68.7786 74.749Z" fill="white"/>
<path opacity="0.5" d="M68.7733 69.4843C68.8259 69.458 68.8811 69.4448 68.931 69.4448C68.9678 69.4448 69.002 69.4527 69.0283 69.4685C69.0887 69.5053 69.1019 69.5815 69.1019 69.6367C69.1019 69.8785 68.9205 70.165 68.6761 70.3043C68.5814 70.3516 68.4816 70.3595 68.4211 70.3201C68.3607 70.2833 68.3475 70.207 68.3475 70.1518C68.3502 69.9074 68.5289 69.6262 68.7733 69.4843Z" fill="white"/>
<path opacity="0.5" d="M68.7707 71.3111C68.8285 71.2822 68.8837 71.269 68.9336 71.269C68.9704 71.269 69.002 71.2769 69.0283 71.2927C69.0887 71.3295 69.1019 71.4057 69.1019 71.4609C69.1019 71.7027 68.9205 71.9892 68.6761 72.1285C68.5814 72.1758 68.4816 72.1811 68.4211 72.1443C68.3607 72.1075 68.3475 72.0313 68.3475 71.9761C68.3502 71.7448 68.5578 71.4162 68.7707 71.3111Z" fill="white"/>
<path opacity="0.5" d="M68.7707 76.2996C68.8285 76.2707 68.8837 76.2576 68.9336 76.2576C68.9704 76.2576 69.002 76.2655 69.0283 76.2812C69.0887 76.318 69.1019 76.3942 69.1019 76.4494C69.1019 76.6912 68.9205 76.9777 68.6761 77.117C68.5814 77.1643 68.4816 77.1722 68.4211 77.1328C68.3633 77.096 68.3502 77.0277 68.3475 76.9725C68.387 76.728 68.5631 76.4021 68.7707 76.2996Z" fill="white"/>
<path opacity="0.5" d="M68.7786 78.0766C68.8285 78.0529 68.8811 78.0398 68.9284 78.0398C68.9652 78.0398 68.9994 78.0477 69.0256 78.0634C69.0861 78.1002 69.0992 78.1765 69.0992 78.2317C69.0992 78.4735 68.9179 78.76 68.6735 78.8993C68.5788 78.9466 68.479 78.9518 68.4185 78.915C68.3607 78.8782 68.3475 78.8099 68.3449 78.7547C68.387 78.505 68.5709 78.2159 68.7786 78.0766Z" fill="white"/>
<path opacity="0.5" d="M70.2715 72.1418C70.3424 72.1023 70.4055 72.0813 70.4554 72.0813C70.4817 72.0813 70.5054 72.0866 70.5264 72.0971C70.5763 72.126 70.6026 72.1943 70.6026 72.2889C70.6026 72.5229 70.4344 72.8094 70.211 72.9592C70.1216 73.0039 70.0244 73.0091 69.9639 72.9723C69.9035 72.9355 69.8904 72.8593 69.8904 72.8041C69.8904 72.557 70.0717 72.2416 70.2715 72.1418Z" fill="white"/>
<path opacity="0.5" d="M70.3057 73.9263C70.3661 73.8974 70.4239 73.8816 70.4739 73.8816C70.5107 73.8816 70.5422 73.8895 70.5685 73.9052C70.6289 73.942 70.6421 74.0183 70.6421 74.0735C70.6421 74.3074 70.4739 74.5939 70.2505 74.7437C70.1611 74.7884 70.0639 74.7936 70.0008 74.7568C69.9403 74.72 69.9272 74.6438 69.9272 74.5886V74.5755C69.8956 74.3337 70.0744 74.0262 70.3057 73.9263Z" fill="white"/>
<path opacity="0.5" d="M70.282 68.6511C70.3319 68.6274 70.3845 68.6143 70.4318 68.6143C70.4686 68.6143 70.5028 68.6221 70.529 68.6379C70.5895 68.6747 70.6026 68.7509 70.6026 68.8061C70.6026 69.04 70.4344 69.3265 70.211 69.4764C70.1216 69.521 70.0244 69.5263 69.9639 69.4895C69.9035 69.4527 69.8904 69.3765 69.8904 69.3213C69.8904 69.0874 70.0586 68.7982 70.282 68.6511Z" fill="white"/>
<path opacity="0.5" d="M70.2715 70.4778C70.3293 70.4489 70.3845 70.4358 70.4344 70.4358C70.4712 70.4358 70.5028 70.4437 70.529 70.4594C70.5895 70.4962 70.6026 70.5725 70.6026 70.6277C70.6026 70.8616 70.4344 71.1481 70.211 71.2979C70.1216 71.3426 70.0244 71.3478 69.9639 71.311C69.9035 71.2742 69.8904 71.198 69.8904 71.1428C69.8904 70.8931 70.0717 70.5777 70.2715 70.4778Z" fill="white"/>
<path opacity="0.5" d="M70.1295 76.3129C70.0796 76.3234 70.0402 76.3155 70.0086 76.2919C69.9009 76.2104 69.8983 75.9528 70.0691 75.7163C70.1742 75.5323 70.3319 75.4298 70.4449 75.4061C70.4581 75.4035 70.4765 75.4009 70.4923 75.4009C70.5159 75.4009 70.5422 75.4061 70.5632 75.4219C70.671 75.5034 70.6736 75.7583 70.5028 75.9975C70.395 76.171 70.2531 76.2893 70.1295 76.3129Z" fill="white"/>
<path opacity="0.5" d="M70.3057 77.2537C70.3661 77.2248 70.4239 77.209 70.4739 77.209C70.5107 77.209 70.5422 77.2169 70.5685 77.2326C70.6289 77.2694 70.6421 77.3457 70.6421 77.4009C70.6421 77.6348 70.4739 77.9213 70.2505 78.0711C70.1611 78.1158 70.0612 78.121 70.0008 78.0842C69.9403 78.0474 69.9272 77.9712 69.9272 77.916V77.9029C69.8956 77.6611 70.0744 77.3509 70.3057 77.2537Z" fill="white"/>
<g opacity="0.5">
<path opacity="0.5" d="M47.8859 64.9423V106.948L84.7983 85.8429L84.6801 43.8394L47.8859 64.9423Z" stroke="white" stroke-width="1.25" stroke-miterlimit="10"/>
<path opacity="0.5" d="M49.9728 66.1252V103.382L82.7114 84.6603L82.6063 47.4036L49.9728 66.1252Z" stroke="white" stroke-width="1.075" stroke-miterlimit="10"/>
<path opacity="0.5" d="M52.0597 67.3056V99.8156L80.6271 83.4804L80.5352 50.9705L52.0597 67.3056Z" stroke="white" stroke-width="0.9" stroke-miterlimit="10"/>
<path opacity="0.5" d="M54.144 68.4855V96.2487L78.5403 82.3L78.4614 54.5369L54.144 68.4855Z" stroke="white" stroke-width="0.725" stroke-miterlimit="10"/>
<path opacity="0.5" d="M56.2309 69.6682V92.682L76.456 81.1199L76.3903 58.1035L56.2309 69.6682Z" stroke="white" stroke-width="0.55" stroke-miterlimit="10"/>
<path opacity="0.5" d="M58.3151 70.8485V89.1181L74.369 79.9373L74.3165 61.6677L58.3151 70.8485Z" stroke="white" stroke-width="0.375" stroke-miterlimit="10"/>
<path opacity="0.5" d="M60.4021 72.0286V85.5515L72.2848 78.7572L72.2454 65.2344L60.4021 72.0286Z" stroke="white" stroke-width="0.2" stroke-miterlimit="10"/>
</g>
<g opacity="0.8">
<path opacity="0.8" d="M93.5196 24.3368V70.7849L134.335 47.4478L134.204 0.999756L93.5196 24.3368Z" fill="url(#paint3_linear)" stroke="#35AFE4" stroke-miterlimit="10" stroke-linejoin="round"/>
</g>
<g opacity="0.8">
<path opacity="0.8" d="M99.089 27.5092V73.9572L139.907 50.6202L139.776 4.17212L99.089 27.5092Z" fill="url(#paint4_linear)" stroke="#35AFE4" stroke-miterlimit="10" stroke-linejoin="round"/>
</g>
<g opacity="0.8">
<path opacity="0.8" d="M108.88 31.3123V65.0392L138.519 48.0943L138.422 14.3647L108.88 31.3123Z" stroke="url(#paint5_linear)" stroke-miterlimit="10"/>
</g>
<path d="M106.914 31.5255L103.171 29.2993L103.302 75.8551L106.914 78.0814V31.5255Z" fill="#62943F"/>
<path d="M147.382 8.13319L144.22 6.36694L103.171 29.2992L106.914 31.5254L147.382 8.13319Z" fill="#9DCC6A"/>
<path d="M106.914 31.5253V78.0811L147.514 54.6889L147.382 8.13306L106.914 31.5253Z" fill="#7EBE42"/>
<path opacity="0.5" d="M123.761 44.2909C123.811 44.2673 123.864 44.2542 123.911 44.2542C123.948 44.2542 123.982 44.262 124.008 44.2778C124.069 44.3146 124.082 44.3908 124.082 44.446C124.082 44.6799 123.914 44.9664 123.69 45.1162C123.601 45.1609 123.504 45.1662 123.441 45.1294C123.38 45.0926 123.367 45.0164 123.367 44.9612V44.948C123.338 44.722 123.543 44.4355 123.761 44.2909Z" fill="white"/>
<path opacity="0.5" d="M123.751 46.1177C123.806 46.0888 123.864 46.0757 123.914 46.0757C123.95 46.0757 123.985 46.0836 124.011 46.0993C124.071 46.1361 124.085 46.2124 124.085 46.2676C124.085 46.5015 123.916 46.788 123.693 46.9378C123.604 46.9825 123.506 46.9877 123.443 46.9509C123.383 46.9141 123.37 46.8379 123.37 46.7827C123.37 46.533 123.551 46.2176 123.751 46.1177Z" fill="white"/>
<path opacity="0.5" d="M123.69 41.6702C123.601 41.7149 123.504 41.7201 123.441 41.6833C123.38 41.6466 123.367 41.5703 123.367 41.5151V41.502C123.333 41.2628 123.512 40.9527 123.743 40.8528C123.803 40.8239 123.861 40.8081 123.911 40.8081C123.948 40.8081 123.979 40.816 124.006 40.8318C124.066 40.8686 124.079 40.9448 124.079 41C124.082 41.2313 123.914 41.5204 123.69 41.6702Z" fill="white"/>
<path opacity="0.5" d="M123.69 43.4525C123.601 43.4972 123.504 43.5024 123.441 43.4656C123.38 43.4288 123.367 43.3526 123.367 43.2974V43.2843C123.335 43.0556 123.501 42.777 123.753 42.6324C123.806 42.6062 123.861 42.593 123.911 42.593C123.948 42.593 123.982 42.6009 124.008 42.6167C124.069 42.6535 124.082 42.7297 124.082 42.7849C124.082 43.0162 123.914 43.3027 123.69 43.4525Z" fill="white"/>
<path opacity="0.5" d="M123.761 47.6157C123.811 47.592 123.864 47.5789 123.911 47.5789C123.948 47.5789 123.982 47.5867 124.008 47.6025C124.069 47.6393 124.082 47.7155 124.082 47.7707C124.082 48.0047 123.914 48.2911 123.69 48.441C123.601 48.4856 123.504 48.4909 123.441 48.4541C123.38 48.4173 123.367 48.3411 123.367 48.2859C123.37 48.0546 123.538 47.7655 123.761 47.6157Z" fill="white"/>
<path opacity="0.5" d="M123.751 49.4454C123.809 49.4165 123.864 49.4033 123.914 49.4033C123.951 49.4033 123.985 49.4112 124.008 49.427C124.069 49.4638 124.082 49.54 124.082 49.5952C124.082 49.8291 123.914 50.1156 123.69 50.2654C123.601 50.3101 123.504 50.3154 123.441 50.2786C123.38 50.2418 123.367 50.1655 123.367 50.1103C123.37 49.8607 123.551 49.5453 123.751 49.4454Z" fill="white"/>
<path opacity="0.5" d="M125.265 43.4579C125.315 43.4343 125.367 43.4211 125.414 43.4211C125.451 43.4211 125.485 43.429 125.512 43.4448C125.572 43.4816 125.585 43.5578 125.585 43.613C125.585 43.8575 125.407 44.1387 125.16 44.2806C125.065 44.3279 124.968 44.3358 124.905 44.2964C124.847 44.2596 124.834 44.1912 124.831 44.1361C124.873 43.8837 125.052 43.5999 125.265 43.4579Z" fill="white"/>
<path opacity="0.5" d="M125.265 45.2399C125.315 45.2163 125.367 45.2031 125.414 45.2031C125.451 45.2031 125.485 45.211 125.512 45.2268C125.572 45.2636 125.585 45.3398 125.585 45.395C125.585 45.6394 125.407 45.9207 125.16 46.0626C125.065 46.1073 124.968 46.1152 124.905 46.0784C124.847 46.0416 124.834 45.9732 124.831 45.918C124.873 45.6657 125.052 45.3819 125.265 45.2399Z" fill="white"/>
<path opacity="0.5" d="M125.254 40.0198C125.312 39.9909 125.367 39.9778 125.417 39.9778C125.454 39.9778 125.488 39.9857 125.512 40.0014C125.572 40.0382 125.585 40.1145 125.585 40.1696C125.585 40.4115 125.401 40.6979 125.16 40.8372C125.065 40.8846 124.968 40.8898 124.905 40.853C124.844 40.8162 124.831 40.74 124.831 40.6848C124.834 40.4535 125.041 40.125 125.254 40.0198Z" fill="white"/>
<path opacity="0.5" d="M125.265 41.7939C125.315 41.7702 125.367 41.7571 125.414 41.7571C125.451 41.7571 125.485 41.765 125.512 41.7807C125.572 41.8175 125.585 41.8938 125.585 41.949C125.585 42.1934 125.407 42.4746 125.16 42.6165C125.065 42.6639 124.968 42.6691 124.905 42.6323C124.847 42.5955 124.834 42.5272 124.831 42.472C124.873 42.2197 125.052 41.9358 125.265 41.7939Z" fill="white"/>
<path opacity="0.5" d="M125.265 46.7853C125.315 46.7617 125.367 46.7485 125.414 46.7485C125.451 46.7485 125.485 46.7564 125.512 46.7722C125.572 46.809 125.585 46.8852 125.585 46.9404C125.585 47.1822 125.401 47.4687 125.16 47.608C125.065 47.6553 124.968 47.6606 124.905 47.6238C124.847 47.587 124.834 47.5186 124.831 47.4634C124.873 47.2138 125.057 46.9246 125.265 46.7853Z" fill="white"/>
<path opacity="0.5" d="M125.265 48.5673C125.315 48.5437 125.367 48.5305 125.414 48.5305C125.451 48.5305 125.485 48.5384 125.512 48.5542C125.572 48.591 125.585 48.6672 125.585 48.7224C125.585 48.9668 125.407 49.2481 125.16 49.39C125.065 49.4373 124.968 49.4426 124.905 49.4058C124.847 49.369 124.834 49.3006 124.831 49.2454C124.873 48.9931 125.052 48.7092 125.265 48.5673Z" fill="white"/>
<path opacity="0.5" d="M126.768 42.6271C126.818 42.6035 126.871 42.5903 126.918 42.5903C126.955 42.5903 126.989 42.5982 127.015 42.614C127.076 42.6508 127.089 42.727 127.089 42.7822C127.089 43.0161 126.921 43.3026 126.697 43.4524C126.608 43.4971 126.51 43.5024 126.447 43.4656C126.387 43.4288 126.374 43.3525 126.374 43.2973C126.376 43.0634 126.545 42.7743 126.768 42.6271Z" fill="white"/>
<path opacity="0.5" d="M126.802 44.4117C126.855 44.3855 126.91 44.3723 126.96 44.3723C126.997 44.3723 127.031 44.3802 127.057 44.396C127.118 44.4328 127.131 44.509 127.131 44.5642C127.131 44.7981 126.963 45.0846 126.739 45.2344C126.65 45.2765 126.553 45.2843 126.492 45.2475C126.432 45.2108 126.419 45.1345 126.419 45.0793V45.0662C126.382 44.8375 126.547 44.5563 126.802 44.4117Z" fill="white"/>
<path opacity="0.5" d="M126.758 39.1866C126.815 39.1577 126.871 39.1445 126.921 39.1445C126.957 39.1445 126.991 39.1524 127.015 39.1682C127.076 39.205 127.089 39.2812 127.089 39.3364C127.089 39.5703 126.921 39.8568 126.697 40.0066C126.608 40.0513 126.51 40.0566 126.447 40.0198C126.387 39.983 126.374 39.9068 126.374 39.8516C126.376 39.6045 126.558 39.2865 126.758 39.1866Z" fill="white"/>
<path opacity="0.5" d="M126.768 40.9633C126.818 40.9397 126.871 40.9265 126.918 40.9265C126.955 40.9265 126.989 40.9344 127.015 40.9502C127.076 40.987 127.089 41.0632 127.089 41.1184C127.089 41.3523 126.921 41.6388 126.697 41.7886C126.608 41.8333 126.51 41.8386 126.447 41.8018C126.387 41.765 126.374 41.6887 126.374 41.6335C126.376 41.3996 126.545 41.1131 126.768 40.9633Z" fill="white"/>
<path opacity="0.5" d="M126.802 45.9574C126.855 45.9311 126.91 45.918 126.96 45.918C126.997 45.918 127.031 45.9259 127.057 45.9416C127.118 45.9784 127.131 46.0546 127.131 46.1098C127.131 46.3438 126.963 46.6302 126.739 46.7801C126.65 46.8247 126.553 46.83 126.492 46.7932C126.432 46.7564 126.419 46.6802 126.419 46.625V46.6119C126.382 46.3832 126.547 46.102 126.802 45.9574Z" fill="white"/>
<path opacity="0.5" d="M126.808 47.7368C126.857 47.7131 126.91 47.7 126.957 47.7C126.994 47.7 127.028 47.7078 127.055 47.7236C127.115 47.7604 127.128 47.8366 127.128 47.8918C127.128 48.1257 126.96 48.4122 126.737 48.562C126.647 48.6067 126.55 48.612 126.489 48.5752C126.429 48.5384 126.416 48.4622 126.416 48.407V48.3938C126.382 48.1652 126.589 47.8813 126.808 47.7368Z" fill="white"/>
<path opacity="0.5" d="M128.295 41.8044C128.356 41.7755 128.413 41.7598 128.463 41.7598C128.5 41.7598 128.532 41.7676 128.558 41.7834C128.618 41.8202 128.632 41.8964 128.632 41.9516C128.632 42.1856 128.463 42.472 128.24 42.6219C128.151 42.6665 128.053 42.6718 127.993 42.635C127.932 42.5982 127.919 42.522 127.919 42.4668V42.4536C127.883 42.2118 128.064 41.9017 128.295 41.8044Z" fill="white"/>
<path opacity="0.5" d="M128.311 43.5761C128.361 43.5525 128.413 43.5393 128.461 43.5393C128.498 43.5393 128.532 43.5472 128.558 43.563C128.618 43.5998 128.632 43.676 128.632 43.7312C128.632 43.9651 128.463 44.2516 128.24 44.4014C128.151 44.4461 128.053 44.4513 127.993 44.4145C127.932 44.3777 127.919 44.3015 127.919 44.2463V44.2332C127.885 44.0072 128.093 43.7233 128.311 43.5761Z" fill="white"/>
<path opacity="0.5" d="M128.24 39.1764C128.151 39.221 128.053 39.2263 127.993 39.1895C127.932 39.1527 127.919 39.0765 127.919 39.0213V39.0081C127.885 38.769 128.064 38.4588 128.295 38.3616C128.356 38.3327 128.413 38.3169 128.463 38.3169C128.5 38.3169 128.532 38.3248 128.558 38.3405C128.618 38.3773 128.632 38.4536 128.632 38.5088C128.632 38.7374 128.463 39.0265 128.24 39.1764Z" fill="white"/>
<path opacity="0.5" d="M128.295 40.1409C128.356 40.112 128.413 40.0962 128.463 40.0962C128.5 40.0962 128.532 40.1041 128.558 40.1198C128.618 40.1566 128.632 40.2329 128.632 40.2881C128.632 40.522 128.463 40.8085 128.24 40.9583C128.13 41.003 128.014 41.0109 127.948 40.9662C127.904 40.9373 127.88 40.8821 127.88 40.8032C127.88 40.5746 128.051 40.246 128.295 40.1409Z" fill="white"/>
<path opacity="0.5" d="M128.3 45.1268C128.358 45.0979 128.413 45.0847 128.463 45.0847C128.5 45.0847 128.532 45.0926 128.558 45.1084C128.618 45.1452 128.632 45.2214 128.632 45.2766C128.632 45.5105 128.463 45.797 128.24 45.9468C128.151 45.9915 128.053 45.9967 127.993 45.96C127.932 45.9232 127.919 45.8469 127.919 45.7917C127.919 45.5447 128.101 45.2266 128.3 45.1268Z" fill="white"/>
<path opacity="0.5" d="M128.311 46.9037C128.361 46.8801 128.413 46.8669 128.461 46.8669C128.498 46.8669 128.532 46.8748 128.558 46.8906C128.618 46.9274 128.632 47.0036 128.632 47.0588C128.632 47.2927 128.463 47.5792 128.24 47.729C128.151 47.7737 128.053 47.779 127.993 47.7422C127.932 47.7054 127.919 47.6292 127.919 47.574C127.919 47.34 128.088 47.0536 128.311 46.9037Z" fill="white"/>
<path opacity="0.5" d="M129.804 40.9686C129.859 40.9397 129.917 40.9265 129.967 40.9265C130.004 40.9265 130.038 40.9344 130.061 40.9502C130.122 40.987 130.135 41.0632 130.135 41.1184C130.135 41.3602 129.954 41.6467 129.709 41.786C129.615 41.8333 129.515 41.8386 129.454 41.8018C129.396 41.765 129.383 41.6966 129.381 41.6414C129.42 41.397 129.596 41.0737 129.804 40.9686Z" fill="white"/>
<path opacity="0.5" d="M129.812 42.7455C129.862 42.7219 129.914 42.7087 129.962 42.7087C129.998 42.7087 130.033 42.7166 130.059 42.7324C130.119 42.7692 130.132 42.8454 130.132 42.9006C130.132 43.1424 129.951 43.4289 129.707 43.5682C129.612 43.6155 129.512 43.6234 129.452 43.584C129.394 43.5472 129.381 43.4788 129.378 43.4236C129.42 43.1713 129.601 42.8875 129.812 42.7455Z" fill="white"/>
<path opacity="0.5" d="M129.806 37.4808C129.859 37.4546 129.914 37.4414 129.964 37.4414C130.001 37.4414 130.035 37.4493 130.061 37.4651C130.122 37.5019 130.135 37.5781 130.135 37.6333C130.135 37.8751 129.954 38.1616 129.709 38.3009C129.615 38.3482 129.515 38.3561 129.454 38.3166C129.394 38.2799 129.381 38.2036 129.381 38.1484C129.383 37.904 129.562 37.6228 129.806 37.4808Z" fill="white"/>
<path opacity="0.5" d="M129.804 39.3077C129.862 39.2788 129.917 39.2656 129.967 39.2656C130.004 39.2656 130.035 39.2735 130.061 39.2893C130.122 39.3261 130.135 39.4023 130.135 39.4575C130.135 39.6993 129.954 39.9858 129.709 40.1251C129.615 40.1724 129.515 40.1777 129.454 40.1409C129.394 40.1041 129.381 40.0278 129.381 39.9726C129.383 39.7414 129.591 39.4128 129.804 39.3077Z" fill="white"/>
<path opacity="0.5" d="M129.804 44.2962C129.862 44.2673 129.917 44.2542 129.967 44.2542C130.004 44.2542 130.035 44.262 130.061 44.2778C130.122 44.3146 130.135 44.3908 130.135 44.446C130.135 44.6878 129.954 44.9743 129.709 45.1136C129.615 45.1609 129.515 45.1688 129.454 45.1294C129.396 45.0926 129.383 45.0243 129.381 44.9691C129.42 44.7246 129.596 44.3987 129.804 44.2962Z" fill="white"/>
<path opacity="0.5" d="M129.812 46.0732C129.862 46.0495 129.914 46.0364 129.962 46.0364C129.998 46.0364 130.033 46.0443 130.059 46.06C130.119 46.0968 130.132 46.1731 130.132 46.2282C130.132 46.4701 129.951 46.7565 129.707 46.8958C129.612 46.9432 129.512 46.9484 129.452 46.9116C129.394 46.8748 129.381 46.8065 129.378 46.7513C129.42 46.5016 129.604 46.2125 129.812 46.0732Z" fill="white"/>
<path opacity="0.5" d="M131.305 40.1383C131.376 40.0989 131.439 40.0779 131.489 40.0779C131.515 40.0779 131.539 40.0831 131.56 40.0937C131.609 40.1226 131.636 40.1909 131.636 40.2855C131.636 40.5194 131.468 40.8059 131.244 40.9558C131.155 41.0004 131.058 41.0057 130.997 40.9689C130.937 40.9321 130.923 40.8559 130.923 40.8007C130.923 40.5536 131.105 40.2382 131.305 40.1383Z" fill="white"/>
<path opacity="0.5" d="M131.339 41.9229C131.399 41.8939 131.457 41.8782 131.507 41.8782C131.544 41.8782 131.575 41.8861 131.602 41.9018C131.662 41.9386 131.675 42.0149 131.675 42.07C131.675 42.304 131.507 42.5905 131.284 42.7403C131.194 42.785 131.097 42.7902 131.034 42.7534C130.973 42.7166 130.96 42.6404 130.96 42.5852V42.5721C130.929 42.3303 131.107 42.0227 131.339 41.9229Z" fill="white"/>
<path opacity="0.5" d="M131.315 36.6476C131.365 36.624 131.418 36.6108 131.465 36.6108C131.502 36.6108 131.536 36.6187 131.562 36.6345C131.623 36.6713 131.636 36.7475 131.636 36.8027C131.636 37.0366 131.468 37.3231 131.244 37.4729C131.155 37.5176 131.058 37.5229 130.997 37.4861C130.937 37.4493 130.923 37.3731 130.923 37.3179C130.923 37.0839 131.092 36.7948 131.315 36.6476Z" fill="white"/>
<path opacity="0.5" d="M131.305 38.4744C131.362 38.4455 131.418 38.4324 131.468 38.4324C131.504 38.4324 131.536 38.4403 131.562 38.456C131.623 38.4928 131.636 38.569 131.636 38.6242C131.636 38.8582 131.468 39.1447 131.244 39.2945C131.155 39.3392 131.058 39.3444 130.997 39.3076C130.937 39.2708 130.923 39.1946 130.923 39.1394C130.923 38.8897 131.105 38.5743 131.305 38.4744Z" fill="white"/>
<path opacity="0.5" d="M131.163 44.3095C131.113 44.32 131.073 44.3121 131.042 44.2885C130.934 44.207 130.931 43.9494 131.102 43.7129C131.207 43.5289 131.365 43.4264 131.478 43.4027C131.491 43.4001 131.51 43.3975 131.525 43.3975C131.549 43.3975 131.575 43.4027 131.596 43.4185C131.704 43.5 131.707 43.7549 131.536 43.9941C131.428 44.1676 131.286 44.2858 131.163 44.3095Z" fill="white"/>
<path opacity="0.5" d="M131.339 45.2503C131.399 45.2213 131.457 45.2056 131.507 45.2056C131.544 45.2056 131.575 45.2135 131.602 45.2292C131.662 45.266 131.675 45.3422 131.675 45.3974C131.675 45.6314 131.507 45.9178 131.284 46.0677C131.194 46.1123 131.094 46.1176 131.034 46.0808C130.973 46.044 130.96 45.9678 130.96 45.9126V45.8995C130.929 45.6576 131.107 45.3475 131.339 45.2503Z" fill="white"/>
<g opacity="0.5">
<path opacity="0.5" d="M108.919 32.9389V74.9451L145.831 53.8395L145.713 11.8359L108.919 32.9389Z" stroke="white" stroke-width="1.25" stroke-miterlimit="10"/>
<path opacity="0.5" d="M111.006 34.1218V71.3786L143.745 52.6569L143.639 15.4001L111.006 34.1218Z" stroke="white" stroke-width="1.075" stroke-miterlimit="10"/>
<path opacity="0.5" d="M113.093 35.3022V67.8122L141.66 51.477L141.568 18.967L113.093 35.3022Z" stroke="white" stroke-width="0.9" stroke-miterlimit="10"/>
<path opacity="0.5" d="M115.177 36.4821V64.2452L139.573 50.2966L139.495 22.5334L115.177 36.4821Z" stroke="white" stroke-width="0.725" stroke-miterlimit="10"/>
<path opacity="0.5" d="M117.264 37.6648V60.6786L137.489 49.1165L137.423 26.1001L117.264 37.6648Z" stroke="white" stroke-width="0.55" stroke-miterlimit="10"/>
<path opacity="0.5" d="M119.348 38.8451V57.1147L135.402 47.9339L135.35 29.6643L119.348 38.8451Z" stroke="white" stroke-width="0.375" stroke-miterlimit="10"/>
<path d="M121.435 40.025V53.5478L133.318 46.7535L133.279 33.2307L121.435 40.025Z" stroke="white" stroke-width="0.2" stroke-miterlimit="10"/>
</g>
<g opacity="0.8">
<path opacity="0.8" d="M93.5196 94.9437V141.392L134.335 118.055L134.204 71.6067L93.5196 94.9437Z" fill="url(#paint6_linear)" stroke="#35AFE4" stroke-miterlimit="10" stroke-linejoin="round"/>
</g>
<g opacity="0.8">
<path opacity="0.8" d="M99.089 98.1161V144.564L139.907 121.227L139.776 74.7791L99.089 98.1161Z" fill="url(#paint7_linear)" stroke="#35AFE4" stroke-miterlimit="10" stroke-linejoin="round"/>
</g>
<g opacity="0.8">
<path opacity="0.8" d="M108.88 101.919V135.646L138.519 118.701L138.422 84.9717L108.88 101.919Z" stroke="url(#paint8_linear)" stroke-miterlimit="10"/>
</g>
<g opacity="0.9">
<path d="M106.914 102.132L103.171 99.9062L103.302 146.462L106.914 148.688V102.132Z" fill="#E29F25"/>
<path d="M147.382 78.7401L144.22 76.9739L103.171 99.9062L106.914 102.132L147.382 78.7401Z" fill="#FFC951"/>
<path d="M106.914 102.132V148.688L147.514 125.296L147.382 78.74L106.914 102.132Z" fill="#FDBA12"/>
</g>
<path opacity="0.5" d="M123.761 114.898C123.811 114.874 123.864 114.861 123.911 114.861C123.948 114.861 123.982 114.869 124.008 114.885C124.069 114.922 124.082 114.998 124.082 115.053C124.082 115.287 123.914 115.573 123.69 115.723C123.601 115.768 123.504 115.773 123.441 115.736C123.38 115.7 123.367 115.623 123.367 115.568V115.555C123.338 115.329 123.543 115.042 123.761 114.898Z" fill="white"/>
<path opacity="0.5" d="M123.751 116.725C123.806 116.696 123.864 116.683 123.914 116.683C123.95 116.683 123.985 116.691 124.011 116.706C124.071 116.743 124.085 116.819 124.085 116.874C124.085 117.108 123.916 117.395 123.693 117.545C123.604 117.589 123.506 117.595 123.443 117.558C123.383 117.521 123.37 117.445 123.37 117.39C123.37 117.14 123.551 116.825 123.751 116.725Z" fill="white"/>
<path opacity="0.5" d="M123.69 112.277C123.601 112.322 123.504 112.327 123.441 112.29C123.38 112.253 123.367 112.177 123.367 112.122V112.109C123.333 111.87 123.512 111.56 123.743 111.46C123.803 111.431 123.861 111.415 123.911 111.415C123.948 111.415 123.979 111.423 124.006 111.439C124.066 111.475 124.079 111.552 124.079 111.607C124.082 111.838 123.914 112.127 123.69 112.277Z" fill="white"/>
<path opacity="0.5" d="M123.69 114.059C123.601 114.104 123.504 114.109 123.441 114.073C123.38 114.036 123.367 113.96 123.367 113.904V113.891C123.335 113.663 123.501 113.384 123.753 113.239C123.806 113.213 123.861 113.2 123.911 113.2C123.948 113.2 123.982 113.208 124.008 113.224C124.069 113.26 124.082 113.337 124.082 113.392C124.082 113.623 123.914 113.91 123.69 114.059Z" fill="white"/>
<path opacity="0.5" d="M123.761 118.223C123.811 118.199 123.864 118.186 123.911 118.186C123.948 118.186 123.982 118.194 124.008 118.209C124.069 118.246 124.082 118.322 124.082 118.378C124.082 118.612 123.914 118.898 123.69 119.048C123.601 119.093 123.504 119.098 123.441 119.061C123.38 119.024 123.367 118.948 123.367 118.893C123.37 118.662 123.538 118.372 123.761 118.223Z" fill="white"/>
<path opacity="0.5" d="M123.751 120.052C123.809 120.023 123.864 120.01 123.914 120.01C123.951 120.01 123.985 120.018 124.008 120.034C124.069 120.071 124.082 120.147 124.082 120.202C124.082 120.436 123.914 120.723 123.69 120.872C123.601 120.917 123.504 120.922 123.441 120.885C123.38 120.849 123.367 120.772 123.367 120.717C123.37 120.468 123.551 120.152 123.751 120.052Z" fill="white"/>
<path opacity="0.5" d="M125.265 114.065C125.315 114.041 125.367 114.028 125.414 114.028C125.451 114.028 125.485 114.036 125.512 114.052C125.572 114.089 125.585 114.165 125.585 114.22C125.585 114.464 125.407 114.746 125.16 114.888C125.065 114.935 124.968 114.943 124.905 114.903C124.847 114.867 124.834 114.798 124.831 114.743C124.873 114.491 125.052 114.207 125.265 114.065Z" fill="white"/>
<path opacity="0.5" d="M125.265 115.847C125.315 115.823 125.367 115.81 125.414 115.81C125.451 115.81 125.485 115.818 125.512 115.834C125.572 115.871 125.585 115.947 125.585 116.002C125.585 116.246 125.407 116.528 125.16 116.67C125.065 116.714 124.968 116.722 124.905 116.685C124.847 116.649 124.834 116.58 124.831 116.525C124.873 116.273 125.052 115.989 125.265 115.847Z" fill="white"/>
<path opacity="0.5" d="M125.254 110.627C125.312 110.598 125.367 110.585 125.417 110.585C125.454 110.585 125.488 110.593 125.512 110.608C125.572 110.645 125.585 110.721 125.585 110.777C125.585 111.018 125.401 111.305 125.16 111.444C125.065 111.491 124.968 111.497 124.905 111.46C124.844 111.423 124.831 111.347 124.831 111.292C124.834 111.06 125.041 110.732 125.254 110.627Z" fill="white"/>
<path opacity="0.5" d="M125.265 112.401C125.315 112.377 125.367 112.364 125.414 112.364C125.451 112.364 125.485 112.372 125.512 112.388C125.572 112.424 125.585 112.501 125.585 112.556C125.585 112.8 125.407 113.082 125.16 113.223C125.065 113.271 124.968 113.276 124.905 113.239C124.847 113.202 124.834 113.134 124.831 113.079C124.873 112.827 125.052 112.543 125.265 112.401Z" fill="white"/>
<path opacity="0.5" d="M125.265 117.392C125.315 117.369 125.367 117.355 125.414 117.355C125.451 117.355 125.485 117.363 125.512 117.379C125.572 117.416 125.585 117.492 125.585 117.547C125.585 117.789 125.401 118.076 125.16 118.215C125.065 118.262 124.968 118.268 124.905 118.231C124.847 118.194 124.834 118.126 124.831 118.07C124.873 117.821 125.057 117.532 125.265 117.392Z" fill="white"/>
<path opacity="0.5" d="M125.265 119.174C125.315 119.151 125.367 119.137 125.414 119.137C125.451 119.137 125.485 119.145 125.512 119.161C125.572 119.198 125.585 119.274 125.585 119.329C125.585 119.574 125.407 119.855 125.16 119.997C125.065 120.044 124.968 120.049 124.905 120.013C124.847 119.976 124.834 119.908 124.831 119.852C124.873 119.6 125.052 119.316 125.265 119.174Z" fill="white"/>
<path opacity="0.5" d="M126.768 113.234C126.818 113.21 126.871 113.197 126.918 113.197C126.955 113.197 126.989 113.205 127.015 113.221C127.076 113.258 127.089 113.334 127.089 113.389C127.089 113.623 126.921 113.91 126.697 114.059C126.608 114.104 126.51 114.109 126.447 114.073C126.387 114.036 126.374 113.959 126.374 113.904C126.376 113.67 126.545 113.381 126.768 113.234Z" fill="white"/>
<path opacity="0.5" d="M126.802 115.019C126.855 114.992 126.91 114.979 126.96 114.979C126.997 114.979 127.031 114.987 127.057 115.003C127.118 115.04 127.131 115.116 127.131 115.171C127.131 115.405 126.963 115.692 126.739 115.841C126.65 115.883 126.553 115.891 126.492 115.854C126.432 115.818 126.419 115.741 126.419 115.686V115.673C126.382 115.444 126.547 115.163 126.802 115.019Z" fill="white"/>
<path opacity="0.5" d="M126.758 109.794C126.815 109.765 126.871 109.751 126.921 109.751C126.957 109.751 126.991 109.759 127.015 109.775C127.076 109.812 127.089 109.888 127.089 109.943C127.089 110.177 126.921 110.464 126.697 110.614C126.608 110.658 126.51 110.663 126.447 110.627C126.387 110.59 126.374 110.514 126.374 110.458C126.376 110.211 126.558 109.893 126.758 109.794Z" fill="white"/>
<path opacity="0.5" d="M126.768 111.57C126.818 111.547 126.871 111.533 126.918 111.533C126.955 111.533 126.989 111.541 127.015 111.557C127.076 111.594 127.089 111.67 127.089 111.725C127.089 111.959 126.921 112.246 126.697 112.396C126.608 112.44 126.51 112.445 126.447 112.409C126.387 112.372 126.374 112.296 126.374 112.24C126.376 112.007 126.545 111.72 126.768 111.57Z" fill="white"/>
<path opacity="0.5" d="M126.802 116.564C126.855 116.538 126.91 116.525 126.96 116.525C126.997 116.525 127.031 116.533 127.057 116.549C127.118 116.585 127.131 116.662 127.131 116.717C127.131 116.951 126.963 117.237 126.739 117.387C126.65 117.432 126.553 117.437 126.492 117.4C126.432 117.363 126.419 117.287 126.419 117.232V117.219C126.382 116.99 126.547 116.709 126.802 116.564Z" fill="white"/>
<path opacity="0.5" d="M126.808 118.344C126.857 118.32 126.91 118.307 126.957 118.307C126.994 118.307 127.028 118.315 127.055 118.331C127.115 118.367 127.128 118.444 127.128 118.499C127.128 118.733 126.96 119.019 126.737 119.169C126.647 119.214 126.55 119.219 126.489 119.182C126.429 119.145 126.416 119.069 126.416 119.014V119.001C126.382 118.772 126.589 118.488 126.808 118.344Z" fill="white"/>
<path opacity="0.5" d="M128.295 112.411C128.356 112.382 128.413 112.367 128.463 112.367C128.5 112.367 128.532 112.375 128.558 112.39C128.618 112.427 128.632 112.503 128.632 112.559C128.632 112.792 128.463 113.079 128.24 113.229C128.151 113.273 128.053 113.279 127.993 113.242C127.932 113.205 127.919 113.129 127.919 113.074V113.061C127.883 112.819 128.064 112.509 128.295 112.411Z" fill="white"/>
<path opacity="0.5" d="M128.311 114.183C128.361 114.159 128.413 114.146 128.461 114.146C128.498 114.146 128.532 114.154 128.558 114.17C128.618 114.207 128.632 114.283 128.632 114.338C128.632 114.572 128.463 114.859 128.24 115.008C128.151 115.053 128.053 115.058 127.993 115.021C127.932 114.985 127.919 114.908 127.919 114.853V114.84C127.885 114.614 128.093 114.33 128.311 114.183Z" fill="white"/>
<path opacity="0.5" d="M128.24 109.783C128.151 109.828 128.053 109.833 127.993 109.796C127.932 109.76 127.919 109.683 127.919 109.628V109.615C127.885 109.376 128.064 109.066 128.295 108.969C128.356 108.94 128.413 108.924 128.463 108.924C128.5 108.924 128.532 108.932 128.558 108.947C128.618 108.984 128.632 109.06 128.632 109.116C128.632 109.344 128.463 109.633 128.24 109.783Z" fill="white"/>
<path opacity="0.5" d="M128.295 110.748C128.356 110.719 128.413 110.703 128.463 110.703C128.5 110.703 128.532 110.711 128.558 110.727C128.618 110.764 128.632 110.84 128.632 110.895C128.632 111.129 128.463 111.415 128.24 111.565C128.13 111.61 128.014 111.618 127.948 111.573C127.904 111.544 127.88 111.489 127.88 111.41C127.88 111.181 128.051 110.853 128.295 110.748Z" fill="white"/>
<path opacity="0.5" d="M128.3 115.734C128.358 115.705 128.413 115.692 128.463 115.692C128.5 115.692 128.532 115.7 128.558 115.715C128.618 115.752 128.632 115.828 128.632 115.884C128.632 116.117 128.463 116.404 128.24 116.554C128.151 116.598 128.053 116.604 127.993 116.567C127.932 116.53 127.919 116.454 127.919 116.399C127.919 116.152 128.101 115.834 128.3 115.734Z" fill="white"/>
<path opacity="0.5" d="M128.311 117.511C128.361 117.487 128.413 117.474 128.461 117.474C128.498 117.474 128.532 117.482 128.558 117.498C128.618 117.534 128.632 117.611 128.632 117.666C128.632 117.9 128.463 118.186 128.24 118.336C128.151 118.381 128.053 118.386 127.993 118.349C127.932 118.312 127.919 118.236 127.919 118.181C127.919 117.947 128.088 117.66 128.311 117.511Z" fill="white"/>
<path opacity="0.5" d="M129.804 111.576C129.859 111.547 129.917 111.533 129.967 111.533C130.004 111.533 130.038 111.541 130.061 111.557C130.122 111.594 130.135 111.67 130.135 111.725C130.135 111.967 129.954 112.254 129.709 112.393C129.615 112.44 129.515 112.445 129.454 112.409C129.396 112.372 129.383 112.304 129.381 112.248C129.42 112.004 129.596 111.681 129.804 111.576Z" fill="white"/>
<path opacity="0.5" d="M129.812 113.352C129.862 113.329 129.914 113.316 129.962 113.316C129.998 113.316 130.033 113.324 130.059 113.339C130.119 113.376 130.132 113.452 130.132 113.508C130.132 113.749 129.951 114.036 129.707 114.175C129.612 114.222 129.512 114.23 129.452 114.191C129.394 114.154 129.381 114.086 129.378 114.031C129.42 113.778 129.601 113.494 129.812 113.352Z" fill="white"/>
<path opacity="0.5" d="M129.806 108.088C129.859 108.062 129.914 108.049 129.964 108.049C130.001 108.049 130.035 108.056 130.061 108.072C130.122 108.109 130.135 108.185 130.135 108.24C130.135 108.482 129.954 108.769 129.709 108.908C129.615 108.955 129.515 108.963 129.454 108.924C129.394 108.887 129.381 108.811 129.381 108.756C129.383 108.511 129.562 108.23 129.806 108.088Z" fill="white"/>
<path opacity="0.5" d="M129.804 109.915C129.862 109.886 129.917 109.873 129.967 109.873C130.004 109.873 130.035 109.88 130.061 109.896C130.122 109.933 130.135 110.009 130.135 110.064C130.135 110.306 129.954 110.593 129.709 110.732C129.615 110.779 129.515 110.785 129.454 110.748C129.394 110.711 129.381 110.635 129.381 110.58C129.383 110.348 129.591 110.02 129.804 109.915Z" fill="white"/>
<path opacity="0.5" d="M129.804 114.903C129.862 114.874 129.917 114.861 129.967 114.861C130.004 114.861 130.035 114.869 130.061 114.885C130.122 114.922 130.135 114.998 130.135 115.053C130.135 115.295 129.954 115.581 129.709 115.721C129.615 115.768 129.515 115.776 129.454 115.736C129.396 115.7 129.383 115.631 129.381 115.576C129.42 115.332 129.596 115.006 129.804 114.903Z" fill="white"/>
<path opacity="0.5" d="M129.812 116.68C129.862 116.656 129.914 116.643 129.962 116.643C129.998 116.643 130.033 116.651 130.059 116.667C130.119 116.704 130.132 116.78 130.132 116.835C130.132 117.077 129.951 117.363 129.707 117.503C129.612 117.55 129.512 117.555 129.452 117.519C129.394 117.482 129.381 117.413 129.378 117.358C129.42 117.109 129.604 116.819 129.812 116.68Z" fill="white"/>
<path opacity="0.5" d="M131.305 110.745C131.376 110.706 131.439 110.685 131.489 110.685C131.515 110.685 131.539 110.69 131.56 110.701C131.609 110.73 131.636 110.798 131.636 110.892C131.636 111.126 131.468 111.413 131.244 111.563C131.155 111.607 131.058 111.613 130.997 111.576C130.937 111.539 130.923 111.463 130.923 111.408C130.923 111.161 131.105 110.845 131.305 110.745Z" fill="white"/>
<path opacity="0.5" d="M131.339 112.53C131.399 112.501 131.457 112.485 131.507 112.485C131.544 112.485 131.575 112.493 131.602 112.509C131.662 112.546 131.675 112.622 131.675 112.677C131.675 112.911 131.507 113.197 131.284 113.347C131.194 113.392 131.097 113.397 131.034 113.36C130.973 113.324 130.96 113.247 130.96 113.192V113.179C130.929 112.937 131.107 112.63 131.339 112.53Z" fill="white"/>
<path opacity="0.5" d="M131.315 107.255C131.365 107.231 131.418 107.218 131.465 107.218C131.502 107.218 131.536 107.226 131.562 107.241C131.623 107.278 131.636 107.354 131.636 107.41C131.636 107.644 131.468 107.93 131.244 108.08C131.155 108.125 131.058 108.13 130.997 108.093C130.937 108.056 130.923 107.98 130.923 107.925C130.923 107.691 131.092 107.402 131.315 107.255Z" fill="white"/>
<path opacity="0.5" d="M131.305 109.081C131.362 109.052 131.418 109.039 131.468 109.039C131.504 109.039 131.536 109.047 131.562 109.063C131.623 109.1 131.636 109.176 131.636 109.231C131.636 109.465 131.468 109.752 131.244 109.901C131.155 109.946 131.058 109.951 130.997 109.915C130.937 109.878 130.923 109.802 130.923 109.746C130.923 109.497 131.105 109.181 131.305 109.081Z" fill="white"/>
<path opacity="0.5" d="M131.163 114.916C131.113 114.927 131.073 114.919 131.042 114.895C130.934 114.814 130.931 114.556 131.102 114.32C131.207 114.136 131.365 114.033 131.478 114.01C131.491 114.007 131.51 114.004 131.525 114.004C131.549 114.004 131.575 114.01 131.596 114.025C131.704 114.107 131.707 114.362 131.536 114.601C131.428 114.775 131.286 114.893 131.163 114.916Z" fill="white"/>
<path opacity="0.5" d="M131.339 115.857C131.399 115.828 131.457 115.812 131.507 115.812C131.544 115.812 131.575 115.82 131.602 115.836C131.662 115.873 131.675 115.949 131.675 116.004C131.675 116.238 131.507 116.525 131.284 116.675C131.194 116.719 131.094 116.725 131.034 116.688C130.973 116.651 130.96 116.575 130.96 116.52V116.506C130.929 116.265 131.107 115.954 131.339 115.857Z" fill="white"/>
<g opacity="0.5">
<path opacity="0.5" d="M108.919 103.546V145.552L145.831 124.447L145.713 82.4431L108.919 103.546Z" stroke="white" stroke-width="1.25" stroke-miterlimit="10"/>
<path opacity="0.5" d="M111.006 104.729V141.986L143.745 123.264L143.639 86.0071L111.006 104.729Z" stroke="white" stroke-width="1.075" stroke-miterlimit="10"/>
<path opacity="0.5" d="M113.093 105.909V138.419L141.66 122.084L141.568 89.574L113.093 105.909Z" stroke="white" stroke-width="0.9" stroke-miterlimit="10"/>
<path opacity="0.5" d="M115.177 107.089V134.852L139.573 120.904L139.495 93.1406L115.177 107.089Z" stroke="white" stroke-width="0.725" stroke-miterlimit="10"/>
<path opacity="0.5" d="M117.264 108.272V131.286L137.489 119.723L137.423 96.707L117.264 108.272Z" stroke="white" stroke-width="0.55" stroke-miterlimit="10"/>
<path opacity="0.5" d="M119.348 109.452V127.722L135.402 118.541L135.35 100.271L119.348 109.452Z" stroke="white" stroke-width="0.375" stroke-miterlimit="10"/>
<path opacity="0.5" d="M121.435 110.632V124.155L133.318 117.36L133.279 103.838L121.435 110.632Z" stroke="white" stroke-width="0.2" stroke-miterlimit="10"/>
</g>
<g opacity="0.8">
<path opacity="0.8" d="M32.4865 127.256V173.704L73.302 150.367L73.1706 103.918L32.4865 127.256Z" fill="url(#paint9_linear)" stroke="#35AFE4" stroke-miterlimit="10" stroke-linejoin="round"/>
</g>
<g opacity="0.8">
<path opacity="0.8" d="M38.0559 130.428V176.876L78.8741 153.539L78.7427 107.091L38.0559 130.428Z" fill="url(#paint10_linear)" stroke="#35AFE4" stroke-miterlimit="10" stroke-linejoin="round"/>
</g>
<g opacity="0.8">
<path opacity="0.8" d="M47.8465 134.231V167.958L77.4863 151.013L77.3891 117.283L47.8465 134.231Z" stroke="url(#paint11_linear)" stroke-miterlimit="10"/>
</g>
<path d="M45.8805 134.444L42.1377 132.218L42.2691 178.774L45.8805 181V134.444Z" fill="#2683B2"/>
<path d="M86.349 111.052L83.1871 109.286L42.1377 132.218L45.8804 134.444L86.349 111.052Z" fill="#60BEEC"/>
<path d="M45.8804 134.444V181L86.4804 157.608L86.349 111.052L45.8804 134.444Z" fill="#399ED8"/>
<path opacity="0.5" d="M62.7281 147.209C62.7781 147.186 62.8306 147.173 62.8779 147.173C62.9147 147.173 62.9489 147.18 62.9752 147.196C63.0356 147.233 63.0488 147.309 63.0488 147.364C63.0488 147.598 62.8806 147.885 62.6572 148.035C62.5678 148.079 62.4706 148.085 62.4075 148.048C62.347 148.011 62.3339 147.935 62.3339 147.88V147.866C62.305 147.64 62.51 147.354 62.7281 147.209Z" fill="white"/>
<path opacity="0.5" d="M62.7176 149.036C62.7728 149.008 62.8306 148.994 62.8806 148.994C62.9173 148.994 62.9515 149.002 62.9778 149.018C63.0383 149.055 63.0514 149.131 63.0514 149.186C63.0514 149.42 62.8832 149.707 62.6598 149.856C62.5704 149.901 62.4732 149.906 62.4101 149.87C62.3496 149.833 62.3365 149.757 62.3365 149.701C62.3365 149.452 62.5178 149.136 62.7176 149.036Z" fill="white"/>
<path opacity="0.5" d="M62.6572 144.589C62.5678 144.634 62.4706 144.639 62.4075 144.602C62.347 144.565 62.3339 144.489 62.3339 144.434V144.421C62.2997 144.182 62.4785 143.871 62.7097 143.771C62.7702 143.743 62.828 143.727 62.878 143.727C62.9148 143.727 62.9463 143.735 62.9726 143.75C63.033 143.787 63.0462 143.863 63.0462 143.919C63.0488 144.15 62.8806 144.439 62.6572 144.589Z" fill="white"/>
<path opacity="0.5" d="M62.6572 146.371C62.5678 146.416 62.4706 146.421 62.4075 146.384C62.347 146.348 62.3339 146.271 62.3339 146.216V146.203C62.3023 145.974 62.4679 145.696 62.7203 145.551C62.7728 145.525 62.828 145.512 62.8779 145.512C62.9147 145.512 62.9489 145.52 62.9752 145.535C63.0356 145.572 63.0488 145.648 63.0488 145.704C63.0488 145.935 62.8806 146.221 62.6572 146.371Z" fill="white"/>
<path opacity="0.5" d="M62.7281 150.534C62.7781 150.511 62.8306 150.498 62.8779 150.498C62.9147 150.498 62.9489 150.505 62.9752 150.521C63.0356 150.558 63.0488 150.634 63.0488 150.689C63.0488 150.923 62.8806 151.21 62.6572 151.36C62.5678 151.404 62.4706 151.41 62.4075 151.373C62.347 151.336 62.3339 151.26 62.3339 151.205C62.3365 150.973 62.5047 150.684 62.7281 150.534Z" fill="white"/>
<path opacity="0.5" d="M62.7176 152.364C62.7754 152.335 62.8306 152.322 62.8806 152.322C62.9174 152.322 62.9515 152.33 62.9752 152.345C63.0356 152.382 63.0488 152.458 63.0488 152.514C63.0488 152.748 62.8806 153.034 62.6572 153.184C62.5678 153.229 62.4706 153.234 62.4075 153.197C62.347 153.16 62.3339 153.084 62.3339 153.029C62.3365 152.779 62.5179 152.464 62.7176 152.364Z" fill="white"/>
<path opacity="0.5" d="M64.2316 146.376C64.2815 146.353 64.3341 146.34 64.3814 146.34C64.4182 146.34 64.4523 146.347 64.4786 146.363C64.5391 146.4 64.5522 146.476 64.5522 146.531C64.5522 146.776 64.3735 147.057 64.1264 147.199C64.0318 147.246 63.9346 147.254 63.8715 147.215C63.8137 147.178 63.8005 147.11 63.7979 147.055C63.8399 146.802 64.0187 146.518 64.2316 146.376Z" fill="white"/>
<path opacity="0.5" d="M64.2316 148.158C64.2815 148.135 64.3341 148.122 64.3814 148.122C64.4182 148.122 64.4523 148.129 64.4786 148.145C64.5391 148.182 64.5522 148.258 64.5522 148.313C64.5522 148.558 64.3735 148.839 64.1264 148.981C64.0318 149.026 63.9346 149.034 63.8715 148.997C63.8137 148.96 63.8005 148.892 63.7979 148.836C63.8399 148.584 64.0187 148.3 64.2316 148.158Z" fill="white"/>
<path opacity="0.5" d="M64.221 142.939C64.2789 142.91 64.3341 142.896 64.384 142.896C64.4208 142.896 64.455 142.904 64.4786 142.92C64.5391 142.957 64.5522 143.033 64.5522 143.088C64.5522 143.33 64.3682 143.617 64.1264 143.756C64.0318 143.803 63.9346 143.809 63.8715 143.772C63.811 143.735 63.7979 143.659 63.7979 143.604C63.8005 143.372 64.0082 143.044 64.221 142.939Z" fill="white"/>
<path opacity="0.5" d="M64.2316 144.713C64.2815 144.689 64.3341 144.676 64.3814 144.676C64.4182 144.676 64.4523 144.684 64.4786 144.699C64.5391 144.736 64.5522 144.812 64.5522 144.868C64.5522 145.112 64.3735 145.393 64.1264 145.535C64.0318 145.583 63.9346 145.588 63.8715 145.551C63.8137 145.514 63.8005 145.446 63.7979 145.391C63.8399 145.138 64.0187 144.855 64.2316 144.713Z" fill="white"/>
<path opacity="0.5" d="M64.2316 149.704C64.2815 149.68 64.3341 149.667 64.3814 149.667C64.4182 149.667 64.4523 149.675 64.4786 149.691C64.5391 149.728 64.5522 149.804 64.5522 149.859C64.5522 150.101 64.3682 150.387 64.1264 150.527C64.0318 150.574 63.9346 150.579 63.8715 150.542C63.8137 150.506 63.8005 150.437 63.7979 150.382C63.8399 150.132 64.0239 149.843 64.2316 149.704Z" fill="white"/>
<path opacity="0.5" d="M64.2316 151.486C64.2815 151.462 64.3341 151.449 64.3814 151.449C64.4182 151.449 64.4523 151.457 64.4786 151.473C64.5391 151.51 64.5522 151.586 64.5522 151.641C64.5522 151.886 64.3735 152.167 64.1264 152.309C64.0318 152.356 63.9346 152.361 63.8715 152.324C63.8137 152.288 63.8005 152.219 63.7979 152.164C63.8399 151.912 64.0187 151.628 64.2316 151.486Z" fill="white"/>
<path opacity="0.5" d="M65.7349 145.546C65.7849 145.522 65.8375 145.509 65.8848 145.509C65.9216 145.509 65.9557 145.517 65.982 145.533C66.0425 145.569 66.0556 145.646 66.0556 145.701C66.0556 145.935 65.8874 146.221 65.664 146.371C65.5746 146.416 65.4774 146.421 65.4143 146.384C65.3538 146.347 65.3407 146.271 65.3407 146.216C65.3433 145.982 65.5115 145.693 65.7349 145.546Z" fill="white"/>
<path opacity="0.5" d="M65.7691 147.33C65.8217 147.304 65.8769 147.291 65.9268 147.291C65.9636 147.291 65.9978 147.299 66.0241 147.315C66.0845 147.351 66.0977 147.428 66.0977 147.483C66.0977 147.717 65.9295 148.003 65.7061 148.153C65.6167 148.195 65.5195 148.203 65.459 148.166C65.3985 148.129 65.3854 148.053 65.3854 147.998V147.985C65.3486 147.756 65.5142 147.475 65.7691 147.33Z" fill="white"/>
<path opacity="0.5" d="M65.7244 142.105C65.7823 142.076 65.8375 142.063 65.8874 142.063C65.9242 142.063 65.9584 142.071 65.982 142.087C66.0425 142.124 66.0556 142.2 66.0556 142.255C66.0556 142.489 65.8874 142.776 65.664 142.925C65.5746 142.97 65.4774 142.975 65.4143 142.938C65.3538 142.902 65.3407 142.825 65.3407 142.77C65.3433 142.523 65.5247 142.205 65.7244 142.105Z" fill="white"/>
<path opacity="0.5" d="M65.7349 143.882C65.7849 143.858 65.8375 143.845 65.8848 143.845C65.9216 143.845 65.9557 143.853 65.982 143.869C66.0425 143.906 66.0556 143.982 66.0556 144.037C66.0556 144.271 65.8874 144.557 65.664 144.707C65.5746 144.752 65.4774 144.757 65.4143 144.72C65.3538 144.684 65.3407 144.607 65.3407 144.552C65.3433 144.318 65.5115 144.032 65.7349 143.882Z" fill="white"/>
<path opacity="0.5" d="M65.7691 148.876C65.8217 148.85 65.8769 148.837 65.9268 148.837C65.9636 148.837 65.9978 148.845 66.0241 148.86C66.0845 148.897 66.0977 148.973 66.0977 149.029C66.0977 149.262 65.9295 149.549 65.7061 149.699C65.6167 149.743 65.5195 149.749 65.459 149.712C65.3985 149.675 65.3854 149.599 65.3854 149.544V149.531C65.3486 149.302 65.5142 149.021 65.7691 148.876Z" fill="white"/>
<path opacity="0.5" d="M65.7744 150.655C65.8243 150.632 65.8769 150.618 65.9242 150.618C65.961 150.618 65.9952 150.626 66.0214 150.642C66.0819 150.679 66.095 150.755 66.095 150.81C66.095 151.044 65.9268 151.331 65.7034 151.481C65.614 151.525 65.5168 151.53 65.4563 151.494C65.3959 151.457 65.3827 151.381 65.3827 151.325V151.312C65.3486 151.084 65.5562 150.8 65.7744 150.655Z" fill="white"/>
<path opacity="0.5" d="M67.2621 144.723C67.3225 144.694 67.3803 144.678 67.4303 144.678C67.4671 144.678 67.4986 144.686 67.5249 144.702C67.5853 144.739 67.5985 144.815 67.5985 144.87C67.5985 145.104 67.4303 145.391 67.2069 145.541C67.1175 145.585 67.0202 145.59 66.9598 145.554C66.8993 145.517 66.8862 145.441 66.8862 145.385V145.372C66.8494 145.131 67.0308 144.82 67.2621 144.723Z" fill="white"/>
<path opacity="0.5" d="M67.2778 146.495C67.3278 146.471 67.3803 146.458 67.4276 146.458C67.4644 146.458 67.4986 146.466 67.5249 146.482C67.5853 146.518 67.5985 146.595 67.5985 146.65C67.5985 146.884 67.4303 147.17 67.2069 147.32C67.1175 147.365 67.0202 147.37 66.9598 147.333C66.8993 147.296 66.8862 147.22 66.8862 147.165V147.152C66.852 146.926 67.0597 146.642 67.2778 146.495Z" fill="white"/>
<path opacity="0.5" d="M67.2069 142.095C67.1175 142.139 67.0202 142.145 66.9598 142.108C66.8993 142.071 66.8862 141.995 66.8862 141.94V141.927C66.852 141.687 67.0308 141.377 67.2621 141.28C67.3225 141.251 67.3803 141.235 67.4303 141.235C67.4671 141.235 67.4986 141.243 67.5249 141.259C67.5853 141.296 67.5985 141.372 67.5985 141.427C67.5985 141.656 67.4303 141.945 67.2069 142.095Z" fill="white"/>
<path opacity="0.5" d="M67.2621 143.06C67.3225 143.031 67.3803 143.015 67.4303 143.015C67.4671 143.015 67.4986 143.023 67.5249 143.039C67.5853 143.075 67.5985 143.152 67.5985 143.207C67.5985 143.441 67.4303 143.727 67.2069 143.877C67.0965 143.922 66.9808 143.93 66.9151 143.885C66.8704 143.856 66.8468 143.801 66.8468 143.722C66.8468 143.493 67.0176 143.165 67.2621 143.06Z" fill="white"/>
<path opacity="0.5" d="M67.2673 148.045C67.3251 148.016 67.3803 148.003 67.4303 148.003C67.4671 148.003 67.4986 148.011 67.5249 148.027C67.5853 148.064 67.5985 148.14 67.5985 148.195C67.5985 148.429 67.4303 148.715 67.2069 148.865C67.1175 148.91 67.0202 148.915 66.9598 148.878C66.8993 148.842 66.8862 148.765 66.8862 148.71C66.8862 148.463 67.0676 148.145 67.2673 148.045Z" fill="white"/>
<path opacity="0.5" d="M67.2778 149.822C67.3278 149.799 67.3803 149.786 67.4276 149.786C67.4644 149.786 67.4986 149.794 67.5249 149.809C67.5853 149.846 67.5985 149.922 67.5985 149.978C67.5985 150.211 67.4303 150.498 67.2069 150.648C67.1175 150.692 67.0202 150.698 66.9598 150.661C66.8993 150.624 66.8862 150.548 66.8862 150.493C66.8862 150.259 67.0544 149.972 67.2778 149.822Z" fill="white"/>
<path opacity="0.5" d="M68.7707 143.887C68.8259 143.858 68.8837 143.845 68.9336 143.845C68.9704 143.845 69.0046 143.853 69.0283 143.869C69.0887 143.906 69.1019 143.982 69.1019 144.037C69.1019 144.279 68.9205 144.565 68.6761 144.705C68.5814 144.752 68.4816 144.757 68.4211 144.72C68.3633 144.684 68.3502 144.615 68.3475 144.56C68.387 144.316 68.5631 143.992 68.7707 143.887Z" fill="white"/>
<path opacity="0.5" d="M68.7786 145.664C68.8285 145.641 68.8811 145.627 68.9284 145.627C68.9652 145.627 68.9994 145.635 69.0256 145.651C69.0861 145.688 69.0992 145.764 69.0992 145.819C69.0992 146.061 68.9179 146.348 68.6735 146.487C68.5788 146.534 68.479 146.542 68.4185 146.503C68.3607 146.466 68.3475 146.398 68.3449 146.342C68.387 146.09 68.5683 145.806 68.7786 145.664Z" fill="white"/>
<path opacity="0.5" d="M68.7733 140.4C68.8259 140.373 68.8811 140.36 68.931 140.36C68.9678 140.36 69.002 140.368 69.0283 140.384C69.0887 140.421 69.1019 140.497 69.1019 140.552C69.1019 140.794 68.9205 141.08 68.6761 141.22C68.5814 141.267 68.4816 141.275 68.4211 141.235C68.3607 141.199 68.3475 141.122 68.3475 141.067C68.3502 140.823 68.5289 140.541 68.7733 140.4Z" fill="white"/>
<path opacity="0.5" d="M68.7707 142.226C68.8285 142.197 68.8837 142.184 68.9336 142.184C68.9704 142.184 69.002 142.192 69.0283 142.208C69.0887 142.245 69.1019 142.321 69.1019 142.376C69.1019 142.618 68.9205 142.904 68.6761 143.044C68.5814 143.091 68.4816 143.096 68.4211 143.059C68.3607 143.023 68.3475 142.946 68.3475 142.891C68.3502 142.66 68.5578 142.331 68.7707 142.226Z" fill="white"/>
<path opacity="0.5" d="M68.7707 147.215C68.8285 147.186 68.8837 147.173 68.9336 147.173C68.9704 147.173 69.002 147.18 69.0283 147.196C69.0887 147.233 69.1019 147.309 69.1019 147.364C69.1019 147.606 68.9205 147.893 68.6761 148.032C68.5814 148.079 68.4816 148.087 68.4211 148.048C68.3633 148.011 68.3502 147.943 68.3475 147.888C68.387 147.643 68.5631 147.317 68.7707 147.215Z" fill="white"/>
<path opacity="0.5" d="M68.7786 148.992C68.8285 148.968 68.8811 148.955 68.9284 148.955C68.9652 148.955 68.9994 148.963 69.0256 148.978C69.0861 149.015 69.0992 149.092 69.0992 149.147C69.0992 149.389 68.9179 149.675 68.6735 149.814C68.5788 149.862 68.479 149.867 68.4185 149.83C68.3607 149.793 68.3475 149.725 68.3449 149.67C68.387 149.42 68.5709 149.131 68.7786 148.992Z" fill="white"/>
<path opacity="0.5" d="M70.2715 143.057C70.3424 143.017 70.4055 142.996 70.4554 142.996C70.4817 142.996 70.5054 143.002 70.5264 143.012C70.5763 143.041 70.6026 143.109 70.6026 143.204C70.6026 143.438 70.4344 143.724 70.211 143.874C70.1216 143.919 70.0244 143.924 69.9639 143.887C69.9035 143.851 69.8904 143.774 69.8904 143.719C69.8904 143.472 70.0717 143.157 70.2715 143.057Z" fill="white"/>
<path opacity="0.5" d="M70.3057 144.841C70.3661 144.812 70.4239 144.797 70.4739 144.797C70.5107 144.797 70.5422 144.805 70.5685 144.82C70.6289 144.857 70.6421 144.933 70.6421 144.989C70.6421 145.222 70.4739 145.509 70.2505 145.659C70.1611 145.703 70.0639 145.709 70.0008 145.672C69.9403 145.635 69.9272 145.559 69.9272 145.504V145.491C69.8956 145.249 70.0744 144.941 70.3057 144.841Z" fill="white"/>
<path opacity="0.5" d="M70.282 139.566C70.3319 139.543 70.3845 139.53 70.4318 139.53C70.4686 139.53 70.5028 139.537 70.529 139.553C70.5895 139.59 70.6026 139.666 70.6026 139.721C70.6026 139.955 70.4344 140.242 70.211 140.392C70.1216 140.436 70.0244 140.442 69.9639 140.405C69.9035 140.368 69.8904 140.292 69.8904 140.237C69.8904 140.003 70.0586 139.714 70.282 139.566Z" fill="white"/>
<path opacity="0.5" d="M70.2715 141.393C70.3293 141.364 70.3845 141.351 70.4344 141.351C70.4712 141.351 70.5028 141.359 70.529 141.374C70.5895 141.411 70.6026 141.487 70.6026 141.543C70.6026 141.777 70.4344 142.063 70.211 142.213C70.1216 142.258 70.0244 142.263 69.9639 142.226C69.9035 142.189 69.8904 142.113 69.8904 142.058C69.8904 141.808 70.0717 141.493 70.2715 141.393Z" fill="white"/>
<path opacity="0.5" d="M70.1295 147.228C70.0796 147.238 70.0402 147.231 70.0086 147.207C69.9009 147.125 69.8983 146.868 70.0691 146.631C70.1742 146.447 70.3319 146.345 70.4449 146.321C70.4581 146.319 70.4765 146.316 70.4923 146.316C70.5159 146.316 70.5422 146.321 70.5632 146.337C70.671 146.418 70.6736 146.673 70.5028 146.913C70.395 147.086 70.2531 147.204 70.1295 147.228Z" fill="white"/>
<path opacity="0.5" d="M70.3057 148.169C70.3661 148.14 70.4239 148.124 70.4739 148.124C70.5107 148.124 70.5422 148.132 70.5685 148.148C70.6289 148.185 70.6421 148.261 70.6421 148.316C70.6421 148.55 70.4739 148.837 70.2505 148.986C70.1611 149.031 70.0612 149.036 70.0008 149C69.9403 148.963 69.9272 148.886 69.9272 148.831V148.818C69.8956 148.576 70.0744 148.266 70.3057 148.169Z" fill="white"/>
<g opacity="0.5">
<path opacity="0.5" d="M47.8859 135.858V177.864L84.7983 156.758L84.6801 114.755L47.8859 135.858Z" stroke="white" stroke-width="1.25" stroke-miterlimit="10"/>
<path opacity="0.5" d="M49.9728 137.041V174.297L82.7114 155.576L82.6063 118.319L49.9728 137.041Z" stroke="white" stroke-width="1.075" stroke-miterlimit="10"/>
<path opacity="0.5" d="M52.0597 138.221V170.731L80.6271 154.396L80.5352 121.886L52.0597 138.221Z" stroke="white" stroke-width="0.9" stroke-miterlimit="10"/>
<path opacity="0.5" d="M54.144 139.401V167.164L78.5403 153.215L78.4614 125.452L54.144 139.401Z" stroke="white" stroke-width="0.725" stroke-miterlimit="10"/>
<path opacity="0.5" d="M56.2309 140.583V163.597L76.456 152.035L76.3903 129.019L56.2309 140.583Z" stroke="white" stroke-width="0.55" stroke-miterlimit="10"/>
<path opacity="0.5" d="M58.3151 141.764V160.033L74.369 150.852L74.3165 132.583L58.3151 141.764Z" stroke="white" stroke-width="0.375" stroke-miterlimit="10"/>
<path opacity="0.5" d="M60.4021 142.944V156.466L72.2848 149.672L72.2454 136.149L60.4021 142.944Z" stroke="white" stroke-width="0.2" stroke-miterlimit="10"/>
</g>
<defs>
<linearGradient id="paint0_linear" x1="73.3031" y1="67.8963" x2="32.4863" y2="67.8963" gradientUnits="userSpaceOnUse">
<stop stop-color="#216FB8"/>
<stop offset="1" stop-color="#1A2C45"/>
</linearGradient>
<linearGradient id="paint1_linear" x1="78.8735" y1="71.0686" x2="38.0567" y2="71.0686" gradientUnits="userSpaceOnUse">
<stop stop-color="#216FB8"/>
<stop offset="1" stop-color="#1A2C45"/>
</linearGradient>
<linearGradient id="paint2_linear" x1="77.6167" y1="71.706" x2="47.7151" y2="71.706" gradientUnits="userSpaceOnUse">
<stop stop-color="#216FB8"/>
<stop offset="1" stop-color="#1A2C45"/>
</linearGradient>
<linearGradient id="paint3_linear" x1="134.336" y1="35.8929" x2="93.5194" y2="35.8929" gradientUnits="userSpaceOnUse">
<stop stop-color="#216FB8"/>
<stop offset="1" stop-color="#1A2C45"/>
</linearGradient>
<linearGradient id="paint4_linear" x1="139.907" y1="39.0652" x2="99.0898" y2="39.0652" gradientUnits="userSpaceOnUse">
<stop stop-color="#216FB8"/>
<stop offset="1" stop-color="#1A2C45"/>
</linearGradient>
<linearGradient id="paint5_linear" x1="138.65" y1="39.7026" x2="108.748" y2="39.7026" gradientUnits="userSpaceOnUse">
<stop stop-color="#216FB8"/>
<stop offset="1" stop-color="#1A2C45"/>
</linearGradient>
<linearGradient id="paint6_linear" x1="134.336" y1="106.5" x2="93.5194" y2="106.5" gradientUnits="userSpaceOnUse">
<stop stop-color="#216FB8"/>
<stop offset="1" stop-color="#1A2C45"/>
</linearGradient>
<linearGradient id="paint7_linear" x1="139.907" y1="109.672" x2="99.0898" y2="109.672" gradientUnits="userSpaceOnUse">
<stop stop-color="#216FB8"/>
<stop offset="1" stop-color="#1A2C45"/>
</linearGradient>
<linearGradient id="paint8_linear" x1="138.65" y1="110.31" x2="108.748" y2="110.31" gradientUnits="userSpaceOnUse">
<stop stop-color="#216FB8"/>
<stop offset="1" stop-color="#1A2C45"/>
</linearGradient>
<linearGradient id="paint9_linear" x1="73.3031" y1="138.812" x2="32.4863" y2="138.812" gradientUnits="userSpaceOnUse">
<stop stop-color="#216FB8"/>
<stop offset="1" stop-color="#1A2C45"/>
</linearGradient>
<linearGradient id="paint10_linear" x1="78.8735" y1="141.984" x2="38.0567" y2="141.984" gradientUnits="userSpaceOnUse">
<stop stop-color="#216FB8"/>
<stop offset="1" stop-color="#1A2C45"/>
</linearGradient>
<linearGradient id="paint11_linear" x1="77.6167" y1="142.621" x2="47.7151" y2="142.621" gradientUnits="userSpaceOnUse">
<stop stop-color="#216FB8"/>
<stop offset="1" stop-color="#1A2C45"/>
</linearGradient>
</defs>
</svg>
